<svg width="800px" height="800px" viewBox="0 -0.5 48 48" version="1.1" xmlns="http://www.w3.org/2000/svg" xmlns:xlink="http://www.w3.org/1999/xlink">
    <g transform="translate(-700.000000, -560.000000)">
        <path fill="#FFFFFF" d="M723.9985,560 C710.746,560 700,570.787092 700,584.096644 C700,594.740671 706.876,603.77183 716.4145,606.958412 C717.6145,607.179786 718.0525,606.435849 718.0525,605.797328 C718.0525,605.225068 718.0315,603.710086 718.0195,601.699648 C711.343,603.155898 709.9345,598.469394 709.9345,598.469394 C708.844,595.686405 707.2705,594.94548 707.2705,594.94548 C705.091,593.450075 707.4355,593.480194 707.4355,593.480194 C709.843,593.650366 711.1105,595.963499 711.1105,595.963499 C713.2525,599.645538 716.728,598.58234 718.096,597.964902 C718.3135,596.407754 718.9345,595.346062 719.62,594.743683 C714.2905,594.135281 708.688,592.069123 708.688,582.836167 C708.688,580.205279 709.6225,578.054788 711.1585,576.369634 C710.911,575.759726 710.0875,573.311058 711.3925,569.993458 C711.3925,569.993458 713.4085,569.345902 717.9925,572.46321 C719.908,571.928599 721.96,571.662047 724.0015,571.651505 C726.04,571.662047 728.0935,571.928599 730.0105,572.46321 C734.5915,569.345902 736.603,569.993458 736.603,569.993458 C737.9125,573.311058 737.089,575.759726 736.8415,576.369634 C738.3805,578.054788 739.309,580.205279 739.309,582.836167 C739.309,592.091712 733.6975,594.129257 728.3515,594.725612 C729.2125,595.469549 729.9805,596.939353 729.9805,599.18773 C729.9805,602.408949 729.9505,605.006706 729.9505,605.797328 C729.9505,606.441873 730.3825,607.191834 731.6005,606.9554 C741.13,603.762794 748,594.737659 748,584.096644 C748,570.787092 737.254,560 723.9985,560"/>
        <path fill="#FFFFFF" d="M716.4145,606.958412 C706.876,603.77183 700,594.740671 700,584.096644 C700,570.787092 710.746,560 723.9985,560 C737.254,560 748,570.787092 748,584.096644 C748,594.737659 741.13,603.762794 731.6005,606.9554 C730.3825,607.191834 729.9505,606.441873 729.9505,605.797328 C729.9505,605.006706 729.9805,602.408949 729.9805,599.18773 C729.9805,596.939353 729.2125,595.469549 728.3515,594.725612 C733.6975,594.129257 739.309,592.091712 739.309,582.836167 C739.309,580.205279 738.3805,578.054788 736.8415,576.369634 C737.089,575.759726 737.9125,573.311058 736.603,569.993458 C736.603,569.993458 734.5915,569.345902 730.0105,572.46321 C728.0935,571.928599 726.04,571.662047 724.0015,571.651505 C721.96,571.662047 719.908,571.928599 717.9925,572.46321 C713.4085,569.345902 711.3925,569.993458 711.3925,569.993458 C710.0875,573.311058 710.911,575.759726 711.1585,576.369634 C709.6225,578.054788 708.688,580.205279 708.688,582.836167 C708.688,592.069123 714.2905,594.135281 719.62,594.743683 C718.9345,595.346062 718.3135,596.407754 718.096,597.964902 C716.728,598.58234 713.2525,599.645538 711.1105,595.963499 C711.1105,595.963499 709.843,593.650366 707.4355,593.480194 C707.4355,593.480194 705.091,593.450075 707.2705,594.94548 C707.2705,594.94548 708.844,595.686405 709.9345,598.469394 C709.9345,598.469394 711.343,603.155898 718.0195,601.699648 C718.0315,603.710086 718.0525,605.225068 718.0525,605.797328 C718.0525,606.435849 717.6145,607.179786 716.4145,606.958412"/>
        <path fill="#FFFFFF" d="M711.3925,569.993458 C710.0875,573.311058 710.911,575.759726 711.1585,576.369634 C709.6225,578.054788 708.688,580.205279 708.688,582.836167 C708.688,592.091712 714.2905,594.135281 719.62,594.743683 C718.9345,595.346062 718.3135,596.407754 718.096,597.964902 C716.728,598.58234 713.2525,599.645538 711.1105,595.963499 C711.1105,595.963499 709.843,593.650366 707.4355,593.480194 C707.4355,593.480194 705.091,593.450075 707.2705,594.94548 C707.2705,594.94548 708.844,595.686405 709.9345,598.469394 C709.9345,598.469394 711.343,603.155898 718.0195,601.699648 C718.0315,603.710086 718.0525,605.225068 718.0525,605.797328 C718.0525,606.435849 717.6145,607.179786 716.4145,606.958412 C706.876,603.77183 700,594.740671 700,584.096644 C700,570.787092 710.746,560 723.9985,560 C737.254,560 748,570.787092 748,584.096644 C748,594.737659 741.13,603.762794 731.6005,606.9554 C730.3825,607.191834 729.9505,606.441873 729.9505,605.797328 C729.9505,605.006706 729.9805,602.408949 729.9805,599.18773 C729.9805,596.939353 729.2125,595.469549 728.3515,594.725612 C733.6975,594.129257 739.309,592.091712 739.309,582.836167 C739.309,580.205279 738.3805,578.054788 736.8415,576.369634 C737.089,575.759726 737.9125,573.311058 736.603,569.993458 C736.603,569.993458 734.5915,569.345902 730.0105,572.46321 C728.0935,571.928599 726.04,571.662047 724.0015,571.651505 C721.96,571.662047 719.908,571.928599 717.9925,572.46321 C713.4085,569.345902 711.3925,569.993458 711.3925,569.993458"/>
        <path fill="#FFFFFF" d="M718.0195,601.699648 C718.0315,603.710086 718.0525,605.225068 718.0525,605.797328 C718.0525,606.435849 717.6145,607.179786 716.4145,606.958412 C706.876,603.77183 700,594.740671 700,584.096644 C700,570.787092 710.746,560 723.9985,560 C737.254,560 748,570.787092 748,584.096644 C748,594.737659 741.13,603.762794 731.6005,606.9554 C730.3825,607.191834 729.9505,606.441873 729.9505,605.797328 C729.9505,605.006706 729.9805,602.408949 729.9805,599.18773 C729.9805,596.939353 729.2125,595.469549 728.3515,594.725612 C733.6975,594.129257 739.309,592.091712 739.309,582.836167 C739.309,580.205279 738.3805,578.054788 736.8415,576.369634 C737.089,575.759726 737.9125,573.311058 736.603,569.993458 C736.603,569.993458 734.5915,569.345902 730.0105,572.46321 C728.0935,571.928599 726.04,571.662047 724.0015,571.651505 C721.96,571.662047 719.908,571.928599 717.9925,572.46321 C713.4085,569.345902 711.3925,569.993458 711.3925,569.993458 C710.0875,573.311058 710.911,575.759726 711.1585,576.369634 C709.6225,578.054788 708.688,580.205279 708.688,582.836167 C708.688,592.069123 714.2905,594.135281 719.62,594.743683 C718.9345,595.346062 718.3135,596.407754 718.096,597.964902 C716.728,598.58234 713.2525,599.645538 711.1105,595.963499 C711.1105,595.963499 709.843,593.650366 707.4355,593.480194 C707.4355,593.480194 705.091,593.450075 707.2705,594.94548 C707.2705,594.94548 708.844,595.686405 709.9345,598.469394 C709.9345,598.469394 711.343,603.155898 718.0195,601.699648"/>
    </g>
</svg>
